<svg width="35" height="29" viewBox="0 0 35 29" fill="none" xmlns="http://www.w3.org/2000/svg">
<path d="M34.1422 1.65662C33.5711 1.08551 32.8848 0.799988 32.0825 0.799988H2.9166C2.11455 0.799988 1.42813 1.08545 0.856636 1.65662C0.28546 2.22786 0 2.91428 0 3.71639V25.8824C0 26.6847 0.28546 27.3712 0.856636 27.9423C1.42813 28.5135 2.11455 28.7991 2.9166 28.7991H32.0829C32.8848 28.7991 33.5713 28.5135 34.1425 27.9423C34.7136 27.3712 34.9994 26.6847 34.9994 25.8824V3.71639C34.9994 2.91428 34.7136 2.22786 34.1422 1.65662ZM32.6656 25.8824C32.6656 26.0406 32.6082 26.1769 32.4928 26.2927C32.3772 26.4076 32.2405 26.4653 32.0825 26.4653H2.9166C2.75871 26.4653 2.62194 26.4076 2.50651 26.2927C2.39114 26.177 2.33336 26.0406 2.33336 25.8824V3.71614C2.33336 3.55818 2.39095 3.42174 2.50651 3.30605C2.62201 3.19093 2.75877 3.13315 2.9166 3.13315H32.0829C32.2407 3.13315 32.3774 3.19093 32.4928 3.30605C32.6078 3.42174 32.6656 3.55818 32.6656 3.71614V25.8824Z" fill="#4C73FF"/>
<path d="M8.16687 12.4661C9.1392 12.4661 9.96551 12.126 10.6461 11.4454C11.3265 10.7648 11.6668 9.93855 11.6668 8.96648C11.6668 7.99409 11.3263 7.16784 10.6461 6.48717C9.96551 5.80681 9.13914 5.46651 8.16687 5.46651C7.19467 5.46651 6.36843 5.80681 5.68782 6.48717C5.00746 7.16778 4.66716 7.99402 4.66716 8.96648C4.66716 9.93855 5.00727 10.765 5.68782 11.4454C6.36843 12.1258 7.19467 12.4661 8.16687 12.4661Z" fill="#4C73FF"/>
<path d="M13.4166 17.7159L10.5 14.7996L4.6669 20.6326V24.1327H30.333V15.9662L22.7499 8.38286L13.4166 17.7159Z" fill="#4C73FF"/>
</svg>
