<svg width="35" height="35" viewBox="0 0 35 35" fill="none" xmlns="http://www.w3.org/2000/svg">
<path d="M20.3866 31.0201C17.9691 31.0201 15.6021 30.3778 13.5309 29.1582C11.6835 28.0685 10.1175 26.5531 8.9701 24.749H3.80309C1.70309 24.749 0 23.0459 0 20.9459V14.0541C0 11.9541 1.70309 10.251 3.80309 10.251H8.9701C10.1175 8.44688 11.6835 6.93142 13.5309 5.84173C15.6021 4.62214 17.9691 3.97987 20.3866 3.97987C20.9278 3.97987 21.3608 4.41286 21.3608 4.9541V30.0459C21.3608 30.5799 20.9278 31.0201 20.3866 31.0201ZM8.54433 12.1995H3.80309C2.77835 12.1995 1.94845 13.0294 1.94845 14.0541V20.9459C1.94845 21.9706 2.77835 22.8005 3.80309 22.8005H8.54433V12.1995ZM19.4124 5.96441C15.7536 6.27472 12.4196 8.33142 10.4928 11.4922V23.5005C12.4196 26.6613 15.7536 28.718 19.4124 29.0283V5.96441Z" fill="#4D4949"/>
<path d="M25.1784 25.0448C24.7381 25.3552 24.132 25.2469 23.8217 24.7995C23.5113 24.3593 23.6196 23.7531 24.067 23.4428C26.0155 22.0861 27.1773 19.8562 27.1773 17.4892C27.1773 15.1222 26.0155 12.8923 24.067 11.5356C23.6268 11.2253 23.5186 10.6191 23.8217 10.1789C24.0093 9.90464 24.3124 9.76031 24.6227 9.76031C24.8175 9.76031 25.0124 9.81804 25.1784 9.9335C27.6464 11.6582 29.1258 14.4799 29.1258 17.482C29.1258 20.484 27.6464 23.3273 25.1784 25.0448Z" fill="#4D4949"/>
<path d="M28.9454 29.0789C28.5052 29.3892 27.899 29.2809 27.5887 28.8335C27.2783 28.3933 27.3866 27.7871 27.834 27.4768C31.1031 25.1964 33.0516 21.4655 33.0516 17.4964C33.0516 13.5273 31.1031 9.7892 27.834 7.516C27.3938 7.2057 27.2856 6.59951 27.5887 6.15931C27.7763 5.88508 28.0794 5.74075 28.3897 5.74075C28.5845 5.74075 28.7794 5.79848 28.9454 5.91395C32.734 8.55518 35 12.8851 35 17.4964C35 22.1077 32.7413 26.4376 28.9454 29.0789Z" fill="#4D4949"/>
</svg>
