<svg width="24" height="30" viewBox="0 0 24 30" fill="none" xmlns="http://www.w3.org/2000/svg">
<path d="M18.4796 2.48853H13.019V0H5.60369V2.48853H0.143066V6.41779H18.4796V2.48853ZM7.56832 1.96463H11.0544V2.48853H7.56832V1.96463Z" fill="#F85656"/>
<path d="M16.7344 14.0347L17.105 8.38242H1.51678L2.7621 27.3738H10.239C9.26575 25.9942 8.69332 24.3126 8.69332 22.4996C8.69332 17.9718 12.262 14.2618 16.7344 14.0347Z" fill="#F85656"/>
<path d="M17.1694 15.9882C13.579 15.9882 10.658 18.9092 10.658 22.4996C10.658 26.09 13.579 29.011 17.1694 29.011C20.7598 29.011 23.6808 26.09 23.6808 22.4996C23.6808 18.9092 20.7598 15.9882 17.1694 15.9882ZM20.7173 24.6583L19.3281 26.0475L17.1694 23.8888L15.0107 26.0475L13.6215 24.6583L15.7802 22.4996L13.6215 20.3409L15.0107 18.9517L17.1694 21.1104L19.3281 18.9517L20.7173 20.3409L18.5586 22.4996L20.7173 24.6583Z" fill="#F85656"/>
</svg>
