<svg width="20" height="20" viewBox="0 0 20 20" fill="none" xmlns="http://www.w3.org/2000/svg">
<path d="M18.036 8.20492H10.866V1.03486C10.866 0.708232 10.4225 0 9.53546 0C8.64844 0 8.20492 0.70827 8.20492 1.03486V8.20495H1.03486C0.70827 8.20492 0 8.64844 0 9.53542C0 10.4224 0.70827 10.866 1.03486 10.866H8.20495V18.0361C8.20495 18.3626 8.64844 19.0709 9.5355 19.0709C10.4225 19.0709 10.866 18.3626 10.866 18.0361V10.866H18.0361C18.3627 10.866 19.071 10.4225 19.071 9.53542C19.071 8.64837 18.3626 8.20492 18.036 8.20492Z" fill="white"/>
</svg>
