<svg width="21" height="21" viewBox="0 0 21 21" fill="none" xmlns="http://www.w3.org/2000/svg">
<path d="M17.3143 4.23748H16.783V3.05493C16.783 1.37108 15.4119 0 13.7281 0H7.31399C5.63014 0 4.25906 1.37108 4.25906 3.05493V4.23748H3.7749C2.09105 4.23748 0.719971 5.60856 0.719971 7.29241V12.2197C0.719971 13.9036 2.09105 15.2747 3.7749 15.2747H4.25478V19.1479C4.25478 19.9877 4.94032 20.6733 5.7801 20.6733H15.2534C16.0932 20.6733 16.7787 19.9877 16.7787 19.1479V15.2747H17.3143C18.9981 15.2747 20.3692 13.9036 20.3692 12.2197V7.29241C20.3692 5.60856 18.9981 4.23748 17.3143 4.23748ZM5.41162 3.05493C5.41162 2.00948 6.26426 1.15685 7.30971 1.15685H13.7195C14.7649 1.15685 15.6176 2.00948 15.6176 3.05493V4.23748H5.41162V3.05493ZM15.6219 19.1565C15.6219 19.3579 15.4548 19.525 15.2534 19.525H5.7801C5.57872 19.525 5.41162 19.3579 5.41162 19.1565V12.7682H15.6219V19.1565ZM19.2124 12.224C19.2124 13.2695 18.3597 14.1221 17.3143 14.1221H16.783V12.7682H17.5457C17.867 12.7682 18.1241 12.5111 18.1241 12.1897C18.1241 11.8684 17.867 11.6113 17.5457 11.6113H3.40642C3.08508 11.6113 2.828 11.8684 2.828 12.1897C2.828 12.5111 3.08508 12.7682 3.40642 12.7682H4.25906V14.1221H3.7749C2.72946 14.1221 1.87682 13.2695 1.87682 12.224V7.2967C1.87682 6.25125 2.72946 5.39861 3.7749 5.39861H17.3143C18.3597 5.39861 19.2124 6.25125 19.2124 7.2967V12.224Z" fill="white"/>
<path d="M6.81268 15.6131H14.1779C14.4993 15.6131 14.7564 15.3561 14.7564 15.0347C14.7564 14.7134 14.4993 14.4563 14.1779 14.4563H6.81268C6.49134 14.4563 6.23426 14.7134 6.23426 15.0347C6.23426 15.3561 6.49562 15.6131 6.81268 15.6131Z" fill="white"/>
<path d="M14.2251 16.8214H6.85554C6.53419 16.8214 6.27711 17.0785 6.27711 17.3998C6.27711 17.7212 6.53419 17.9783 6.85554 17.9783H14.2208C14.5421 17.9783 14.7992 17.7212 14.7992 17.3998C14.7992 17.0785 14.5421 16.8214 14.2251 16.8214Z" fill="white"/>
<path d="M17.3014 6.5083H16.1274C15.8061 6.5083 15.549 6.76538 15.549 7.08672C15.549 7.40807 15.8061 7.66515 16.1274 7.66515H17.3014C17.6228 7.66515 17.8799 7.40807 17.8799 7.08672C17.8799 6.76538 17.6228 6.5083 17.3014 6.5083Z" fill="white"/>
</svg>
