<svg width="27" height="27" viewBox="0 0 27 27" fill="none" xmlns="http://www.w3.org/2000/svg">
<g clip-path="url(#clip0)">
<path d="M2.59147 9.43204C2.93301 9.67306 3.96256 10.3889 5.68016 11.5791C7.39781 12.7693 8.71365 13.6858 9.62773 14.3285C9.72816 14.399 9.94152 14.5521 10.2679 14.7882C10.5944 15.0244 10.8656 15.2153 11.0815 15.3609C11.2975 15.5064 11.5586 15.6697 11.8651 15.8504C12.1715 16.031 12.4603 16.1669 12.7315 16.2568C13.0028 16.3475 13.2539 16.3924 13.4849 16.3924H13.5H13.5152C13.7462 16.3924 13.9974 16.3474 14.2686 16.2568C14.5397 16.1669 14.8288 16.0309 15.135 15.8504C15.4413 15.6695 15.7024 15.5064 15.9184 15.3609C16.1344 15.2153 16.4054 15.0244 16.732 14.7882C17.0583 14.5519 17.2719 14.399 17.3724 14.3285C18.2963 13.6858 20.647 12.0535 24.4236 9.43173C25.1569 8.91967 25.7694 8.30181 26.2615 7.57855C26.754 6.85562 27 6.09722 27 5.30378C27 4.64074 26.7613 4.07317 26.2841 3.60111C25.807 3.12895 25.2419 2.89301 24.5892 2.89301H2.41061C1.63723 2.89301 1.04205 3.15413 0.625201 3.67637C0.2084 4.19871 0 4.85162 0 5.63503C0 6.26783 0.276319 6.95356 0.828693 7.6918C1.38101 8.4301 1.9688 9.01023 2.59147 9.43204Z" fill="#3E3D3D"/>
<path d="M25.4931 11.044C22.1988 13.2737 19.6974 15.0066 17.99 16.2422C17.4175 16.6639 16.953 16.9931 16.5963 17.229C16.2396 17.4651 15.7653 17.7061 15.1725 17.9521C14.58 18.1985 14.0278 18.3213 13.5154 18.3213H13.5H13.4849C12.9726 18.3213 12.4201 18.1985 11.8276 17.9521C11.235 17.7061 10.7603 17.4651 10.4038 17.229C10.0473 16.9931 9.58266 16.6639 9.01018 16.2422C7.65408 15.2479 5.15802 13.5149 1.52192 11.044C0.949226 10.6626 0.441973 10.2254 0 9.73326V21.6961C0 22.3594 0.235948 22.9267 0.708107 23.3988C1.18016 23.8711 1.74779 24.1071 2.41077 24.1071H24.5894C25.2523 24.1071 25.8198 23.8711 26.2919 23.3988C26.7642 22.9265 27 22.3595 27 21.6961V9.73326C26.568 10.2152 26.066 10.6524 25.4931 11.044Z" fill="#3E3D3D"/>
</g>
<defs>
<clipPath id="clip0">
<rect width="27" height="27" fill="white"/>
</clipPath>
</defs>
</svg>
