<svg width="21" height="27" viewBox="0 0 21 27" fill="none" xmlns="http://www.w3.org/2000/svg">
<path d="M19.404 10.9037H18.8779V8.44143C18.8779 3.88725 15.2638 0.082875 10.7467 0.00166416C10.6233 -0.000554719 10.3766 -0.000554719 10.2533 0.00166416C5.73603 0.082875 2.12204 3.88725 2.12204 8.44143V10.9037H1.59589C0.785115 10.9037 0.123779 11.7403 0.123779 12.7736V25.1234C0.123779 26.1556 0.785115 27 1.59595 27H19.404C20.2147 27 20.8761 26.1556 20.8761 25.1234V12.7736C20.8761 11.7404 20.2148 10.9037 19.404 10.9037ZM12.1683 18.936V22.6676C12.1683 23.0949 11.8106 23.4566 11.383 23.4566H9.61707C9.18938 23.4566 8.83164 23.0949 8.83164 22.6676V18.936C8.41688 18.5277 8.17541 17.9632 8.17541 17.3387C8.17541 16.1552 9.09019 15.1383 10.2533 15.0913C10.3766 15.0864 10.6235 15.0864 10.7467 15.0913C11.9099 15.1383 12.8247 16.1552 12.8247 17.3387C12.8246 17.9632 12.5831 18.5277 12.1683 18.936ZM15.4103 10.9037H10.7467H10.2533H5.58964V8.44143C5.58964 5.72858 7.79432 3.48547 10.5 3.48547C13.2056 3.48547 15.4104 5.72858 15.4104 8.44143V10.9037H15.4103Z" fill="#3E3D3D"/>
</svg>
