<svg width="269" height="130" viewBox="0 0 269 130" fill="none" xmlns="http://www.w3.org/2000/svg">
<path d="M30.198 65.3717C29.772 65.3717 29.3461 65.3717 28.9201 65.3717C23.1165 65.3191 17.6323 63.6863 13 61L28.015 130L45 61.4214C40.9534 63.6336 36.3744 65.0031 31.5291 65.3191C31.1032 65.3191 30.624 65.3717 30.198 65.3717Z" fill="url(#paint0_linear)"/>
<path d="M35.3646 30.6614C33.3802 29.6116 31.074 29.059 28.7142 29.0038C26.3008 28.9485 24.0482 29.5011 22.0102 30.4956C16.7542 32.9821 13.0536 38.4522 13 44.8064C13 46.1878 13.1609 47.5691 13.4291 48.84C14.5017 53.3708 17.5051 57.1833 21.4739 59.283C22.4929 59.8355 23.6192 60.2775 24.7991 60.5538C25.9254 60.8301 27.1053 60.9958 28.2852 60.9958C30.5914 61.0511 32.7903 60.5538 34.7747 59.6145C34.8819 59.5592 34.9892 59.504 35.1501 59.4487C38.4753 57.7911 41.1569 54.9732 42.6586 51.4922C43.5167 49.5583 43.9458 47.4586 43.9994 45.2485C44.053 38.839 40.5133 33.2583 35.3646 30.6614Z" fill="url(#paint1_linear)"/>
<path d="M7.81714 31.6034V55.8398C8.41428 55.9466 9.01142 55.9466 9.60856 55.9466H11.4V31.4433H9.60856C9.01142 31.4967 8.41428 31.55 7.81714 31.6034ZM45.4371 31.4967V56H47.2286C47.8257 56 48.4229 55.9466 49.02 55.8932V31.6568C48.4229 31.55 47.8257 31.55 47.2286 31.55H45.4371V31.4967ZM56.8914 27.9733C56.8914 12.4919 44.1343 0 28.4457 0C12.7571 0 0 12.5453 0 27.9733C0 31.3365 0.59713 34.5396 1.68284 37.5291C0.59713 39.3441 0 41.4795 0 43.7216C0 48.5796 2.93142 52.7969 7.11142 54.7722V32.6177C5.97142 33.1516 4.94 33.8456 4.07143 34.6463C3.74571 33.0448 3.58284 31.3899 3.58284 29.6816C3.58284 16.1754 14.7114 5.17827 28.5 5.17827C42.2343 5.17827 53.4171 16.122 53.4171 29.6816C53.4171 31.3899 53.2543 33.0448 52.9286 34.6463C52.0057 33.8456 50.9743 33.1516 49.8886 32.6177V54.7722C54.0686 52.7969 57 48.5796 57 43.7216C57 41.4795 56.4029 39.3441 55.3171 37.5291C56.2943 34.5396 56.8914 31.3365 56.8914 27.9733Z" fill="url(#paint2_linear)"/>
<path d="M105.892 54.9786H93.6971L90.9583 62.5989H87L98.1151 33.4011H101.474L112.609 62.5989H108.67L105.892 54.9786ZM94.8565 51.8102H104.752L99.7944 38.1537L94.8565 51.8102Z" fill="#7956A4"/>
<path d="M136.658 33.4011V53.254C136.645 56.008 135.779 58.2607 134.059 60.012C132.353 61.7634 130.034 62.746 127.102 62.9599L126.083 63C122.898 63 120.359 62.1377 118.466 60.4131C116.574 58.6885 115.614 56.3155 115.587 53.2941V33.4011H119.386V53.1738C119.386 55.2861 119.966 56.9305 121.125 58.107C122.284 59.2701 123.937 59.8516 126.083 59.8516C128.255 59.8516 129.914 59.2701 131.061 58.107C132.22 56.9438 132.8 55.3061 132.8 53.1938V33.4011H136.658Z" fill="#7956A4"/>
<path d="M142.716 62.5989V33.4011H150.932C153.464 33.4011 155.703 33.9626 157.649 35.0856C159.595 36.2086 161.094 37.8061 162.147 39.8783C163.213 41.9505 163.753 44.3302 163.766 47.0174V48.8824C163.766 51.6364 163.233 54.0495 162.167 56.1217C161.114 58.1938 159.601 59.7848 157.629 60.8944C155.67 62.004 153.384 62.5722 150.772 62.5989H142.716ZM146.554 36.5695V59.4505H150.592C153.551 59.4505 155.85 58.5281 157.489 56.6832C159.142 54.8382 159.968 52.2112 159.968 48.8021V47.0976C159.968 43.7821 159.188 41.2086 157.629 39.377C156.083 37.5321 153.884 36.5963 151.032 36.5695H146.554Z" fill="#7956A4"/>
<path d="M173.702 62.5989H169.864V33.4011H173.702V62.5989Z" fill="#7956A4"/>
<path d="M203.129 48.9425C203.129 51.8035 202.649 54.3035 201.69 56.4425C200.73 58.5682 199.371 60.1925 197.611 61.3155C195.852 62.4385 193.8 63 191.454 63C189.162 63 187.129 62.4385 185.357 61.3155C183.584 60.1791 182.205 58.5682 181.219 56.4826C180.246 54.3837 179.746 51.9572 179.719 49.2032V47.0976C179.719 44.2901 180.206 41.8102 181.179 39.6578C182.152 37.5053 183.524 35.861 185.297 34.7246C187.083 33.5749 189.122 33 191.414 33C193.746 33 195.799 33.5682 197.571 34.7045C199.357 35.8275 200.73 37.4652 201.69 39.6176C202.649 41.7567 203.129 44.25 203.129 47.0976V48.9425ZM199.311 47.0575C199.311 43.5949 198.618 40.9412 197.232 39.0963C195.845 37.238 193.906 36.3088 191.414 36.3088C188.988 36.3088 187.076 37.238 185.677 39.0963C184.291 40.9412 183.578 43.508 183.538 46.7968V48.9425C183.538 52.2981 184.237 54.9385 185.637 56.8636C187.049 58.7754 188.988 59.7313 191.454 59.7313C193.933 59.7313 195.852 58.8289 197.212 57.0241C198.571 55.2059 199.271 52.6056 199.311 49.2233V47.0575Z" fill="#7956A4"/>
<path d="M230.377 58.7687C229.391 60.1858 228.011 61.2487 226.239 61.9572C224.48 62.6524 222.427 63 220.081 63C217.709 63 215.603 62.4452 213.764 61.3356C211.925 60.2126 210.499 58.6217 209.486 56.5628C208.487 54.504 207.973 52.1176 207.947 49.4037V46.857C207.947 42.4586 208.966 39.0495 211.005 36.6297C213.058 34.2099 215.937 33 219.642 33C222.68 33 225.126 33.7821 226.978 35.3463C228.831 36.8971 229.964 39.1029 230.377 41.9639H226.539C225.819 38.1003 223.527 36.1684 219.662 36.1684C217.089 36.1684 215.137 37.0775 213.804 38.8957C212.485 40.7005 211.818 43.3209 211.805 46.7567V49.143C211.805 52.4184 212.551 55.0254 214.044 56.9639C215.537 58.889 217.556 59.8516 220.101 59.8516C221.541 59.8516 222.8 59.6912 223.88 59.3703C224.959 59.0495 225.852 58.508 226.559 57.746V51.1885H219.822V48.0602H230.377V58.7687Z" fill="#7956A4"/>
<path d="M240.912 62.5989H237.074V33.4011H240.912V62.5989Z" fill="#7956A4"/>
<path d="M247.949 62.5989V33.4011H256.166C258.698 33.4011 260.937 33.9626 262.883 35.0856C264.828 36.2086 266.328 37.8061 267.381 39.8783C268.447 41.9505 268.987 44.3302 269 47.0174V48.8824C269 51.6364 268.467 54.0495 267.401 56.1217C266.348 58.1938 264.835 59.7848 262.863 60.8944C260.904 62.004 258.618 62.5722 256.006 62.5989H247.949ZM251.788 36.5695V59.4505H255.826C258.785 59.4505 261.083 58.5281 262.723 56.6832C264.375 54.8382 265.202 52.2112 265.202 48.8021V47.0976C265.202 43.7821 264.422 41.2086 262.863 39.377C261.317 37.5321 259.118 36.5963 256.266 36.5695H251.788Z" fill="#7956A4"/>
<path d="M107.701 87.125H101.08V91.8529H99V81.1471H108.774V82.3088H101.08V85.9706H107.701V87.125Z" fill="#8F9194"/>
<path d="M113.498 91.8529H111.418V81.1471H113.498V91.8529Z" fill="#8F9194"/>
<path d="M129.437 91.8529H127.346L119.404 83.6029V91.8529H117.312V81.1471H119.404L127.368 89.4338V81.1471H129.437V91.8529Z" fill="#8F9194"/>
<path d="M133.132 91.8529V81.1471H137.586C138.958 81.1471 140.172 81.3529 141.227 81.7647C142.281 82.1765 143.094 82.7623 143.665 83.5221C144.243 84.2819 144.535 85.1544 144.542 86.1397V86.8235C144.542 87.8333 144.254 88.7181 143.676 89.4779C143.105 90.2377 142.285 90.8211 141.216 91.2279C140.154 91.6348 138.915 91.8431 137.499 91.8529H133.132ZM135.213 82.3088V90.6985H137.402C139.005 90.6985 140.252 90.3603 141.14 89.6838C142.036 89.0074 142.484 88.0441 142.484 86.7941V86.1691C142.484 84.9534 142.061 84.0098 141.216 83.3382C140.378 82.6618 139.186 82.3186 137.64 82.3088H135.213Z" fill="#8F9194"/>
<path d="M158.011 86.5221L162.129 81.1471H164.491L159.051 87.8603V91.8529H156.971V87.8603L151.531 81.1471H153.915L158.011 86.5221Z" fill="#8F9194"/>
<path d="M178.339 86.8456C178.339 87.8946 178.079 88.8113 177.559 89.5956C177.039 90.375 176.302 90.9706 175.348 91.3824C174.395 91.7941 173.282 92 172.011 92C170.768 92 169.667 91.7941 168.706 91.3824C167.745 90.9657 166.998 90.375 166.463 89.6103C165.936 88.8407 165.665 87.951 165.65 86.9412V86.1691C165.65 85.1397 165.914 84.2304 166.441 83.4412C166.969 82.652 167.713 82.049 168.674 81.6324C169.642 81.2108 170.747 81 171.989 81C173.253 81 174.366 81.2083 175.327 81.625C176.295 82.0368 177.039 82.6373 177.559 83.4265C178.079 84.2108 178.339 85.125 178.339 86.1691V86.8456ZM176.269 86.1544C176.269 84.8848 175.894 83.9118 175.142 83.2353C174.391 82.5539 173.34 82.2132 171.989 82.2132C170.675 82.2132 169.638 82.5539 168.879 83.2353C168.128 83.9118 167.742 84.8529 167.72 86.0588V86.8456C167.72 88.076 168.099 89.0441 168.858 89.75C169.623 90.451 170.675 90.8015 172.011 90.8015C173.355 90.8015 174.395 90.4706 175.132 89.8088C175.868 89.1422 176.248 88.1887 176.269 86.9485V86.1544Z" fill="#8F9194"/>
<path d="M192.566 81.1471V88.4265C192.559 89.4363 192.09 90.2623 191.158 90.9044C190.233 91.5466 188.976 91.9069 187.387 91.9853L186.834 92C185.108 92 183.732 91.6838 182.706 91.0515C181.68 90.4191 181.16 89.549 181.145 88.4412V81.1471H183.204V88.3971C183.204 89.1716 183.518 89.7745 184.147 90.2059C184.775 90.6324 185.671 90.8456 186.834 90.8456C188.012 90.8456 188.911 90.6324 189.532 90.2059C190.161 89.7794 190.475 89.1789 190.475 88.4044V81.1471H192.566Z" fill="#8F9194"/>
<path d="M201.636 87.5221H197.93V91.8529H195.839V81.1471H201.061C202.839 81.1471 204.204 81.4216 205.157 81.9706C206.118 82.5196 206.599 83.3186 206.599 84.3676C206.599 85.0343 206.331 85.6152 205.797 86.1103C205.269 86.6054 204.533 86.9755 203.586 87.2206L207.292 91.7647V91.8529H205.06L201.636 87.5221ZM197.93 86.3676H201.127C202.16 86.3676 202.979 86.1863 203.586 85.8235C204.2 85.4608 204.507 84.9755 204.507 84.3676C204.507 83.7059 204.215 83.1985 203.63 82.8456C203.052 82.4926 202.214 82.3137 201.116 82.3088H197.93V86.3676Z" fill="#8F9194"/>
<path d="M218.431 88.4779L218.735 89.8897L219.179 88.6176L222.299 81.1471H224.055L227.1 88.6176L227.533 89.9118L227.869 88.4706L230.318 81.1471H232.409L228.584 91.8529H226.688L223.437 84.0515L223.188 83.2353L222.939 84.0515L219.569 91.8529H217.673L213.858 81.1471H215.939L218.431 88.4779Z" fill="#8F9194"/>
<path d="M242.963 89.0588H236.353L234.869 91.8529H232.723L238.748 81.1471H240.568L246.604 91.8529H244.469L242.963 89.0588ZM236.982 87.8971H242.345L239.658 82.8897L236.982 87.8971Z" fill="#8F9194"/>
<path d="M252.52 86.5221L256.638 81.1471H259L253.56 87.8603V91.8529H251.48V87.8603L246.04 81.1471H248.424L252.52 86.5221Z" fill="#8F9194"/>
<defs>
<linearGradient id="paint0_linear" x1="75.6422" y1="494.938" x2="1.32434" y2="-211.242" gradientUnits="userSpaceOnUse">
<stop stop-color="#FF1919"/>
<stop offset="0.1786" stop-color="#FFB41E"/>
<stop offset="0.3265" stop-color="#31E500"/>
<stop offset="0.4796" stop-color="#00CBDB"/>
<stop offset="0.6786" stop-color="#710FFF"/>
<stop offset="0.8214" stop-color="#EA00CA"/>
</linearGradient>
<linearGradient id="paint1_linear" x1="57.9208" y1="330.173" x2="10.1138" y2="-106.02" gradientUnits="userSpaceOnUse">
<stop stop-color="#FF1919"/>
<stop offset="0.1786" stop-color="#FFB41E"/>
<stop offset="0.3265" stop-color="#31E500"/>
<stop offset="0.4796" stop-color="#00CBDB"/>
<stop offset="0.6786" stop-color="#710FFF"/>
<stop offset="0.8214" stop-color="#EA00CA"/>
<stop offset="1" stop-color="#F40006"/>
</linearGradient>
<linearGradient id="paint2_linear" x1="-0.0412029" y1="27.9888" x2="56.8775" y2="27.9888" gradientUnits="userSpaceOnUse">
<stop stop-color="#710FFF"/>
<stop offset="0.4549" stop-color="#710FFF"/>
</linearGradient>
</defs>
</svg>
