<svg width="32" height="32" viewBox="0 0 32 32" fill="none" xmlns="http://www.w3.org/2000/svg">
<path d="M16 0C7.17785 0 0 7.17723 0 16C0 24.8228 7.17785 32 16 32C24.8222 32 32 24.8228 32 16C32 7.17723 24.8222 0 16 0ZM16 30.7692C7.85662 30.7692 1.23077 24.1434 1.23077 16C1.23077 7.85662 7.85662 1.23077 16 1.23077C24.1434 1.23077 30.7692 7.85662 30.7692 16C30.7692 24.1434 24.1434 30.7692 16 30.7692Z" fill="#3EBA52"/>
<path d="M23.5397 9.43753L14.0818 20.0775L8.384 15.5194C8.11939 15.3071 7.73108 15.3508 7.51939 15.6154C7.30708 15.8812 7.35016 16.2683 7.61539 16.4806L13.7692 21.4037C13.8825 21.4941 14.0185 21.5385 14.1538 21.5385C14.3237 21.5385 14.4929 21.4683 14.6142 21.3317L24.4603 10.2548C24.6862 10.0012 24.6634 9.61168 24.4092 9.38645C24.1545 9.15999 23.7662 9.18276 23.5397 9.43753Z" fill="#3EBA52"/>
</svg>
